<svg width="25" height="25" viewBox="0 0 25 25" fill="none" xmlns="http://www.w3.org/2000/svg">
<path d="M6.25 2V3.5625M18.75 2V3.5625" stroke="white" stroke-width="2" stroke-linecap="round" stroke-linejoin="round"/>
<path d="M20.3125 3.5625H4.6875C3.39308 3.5625 2.34375 4.61183 2.34375 5.90625V19.9688C2.34375 21.2632 3.39308 22.3125 4.6875 22.3125H20.3125C21.6069 22.3125 22.6562 21.2632 22.6562 19.9688V5.90625C22.6562 4.61183 21.6069 3.5625 20.3125 3.5625Z" stroke="white" stroke-width="2" stroke-linejoin="round"/>
<path d="M14.4531 12.1562C15.1003 12.1562 15.625 11.646 15.625 11.0166C15.625 10.3872 15.1003 9.87695 14.4531 9.87695C13.8059 9.87695 13.2812 10.3872 13.2812 11.0166C13.2812 11.646 13.8059 12.1562 14.4531 12.1562Z" fill="white"/>
<path d="M18.3594 12.1562C19.0066 12.1562 19.5312 11.646 19.5312 11.0166C19.5312 10.3872 19.0066 9.87695 18.3594 9.87695C17.7122 9.87695 17.1875 10.3872 17.1875 11.0166C17.1875 11.646 17.7122 12.1562 18.3594 12.1562Z" fill="white"/>
<path d="M14.4531 15.9551C15.1003 15.9551 15.625 15.4448 15.625 14.8154C15.625 14.186 15.1003 13.6758 14.4531 13.6758C13.8059 13.6758 13.2812 14.186 13.2812 14.8154C13.2812 15.4448 13.8059 15.9551 14.4531 15.9551Z" fill="white"/>
<path d="M18.3594 15.9551C19.0066 15.9551 19.5312 15.4448 19.5312 14.8154C19.5312 14.186 19.0066 13.6758 18.3594 13.6758C17.7122 13.6758 17.1875 14.186 17.1875 14.8154C17.1875 15.4448 17.7122 15.9551 18.3594 15.9551Z" fill="white"/>
<path d="M6.64062 15.9551C7.28783 15.9551 7.8125 15.4448 7.8125 14.8154C7.8125 14.186 7.28783 13.6758 6.64062 13.6758C5.99342 13.6758 5.46875 14.186 5.46875 14.8154C5.46875 15.4448 5.99342 15.9551 6.64062 15.9551Z" fill="white"/>
<path d="M10.5469 15.9551C11.1941 15.9551 11.7188 15.4448 11.7188 14.8154C11.7188 14.186 11.1941 13.6758 10.5469 13.6758C9.89967 13.6758 9.375 14.186 9.375 14.8154C9.375 15.4448 9.89967 15.9551 10.5469 15.9551Z" fill="white"/>
<path d="M6.64062 19.7539C7.28783 19.7539 7.8125 19.2437 7.8125 18.6143C7.8125 17.9848 7.28783 17.4746 6.64062 17.4746C5.99342 17.4746 5.46875 17.9848 5.46875 18.6143C5.46875 19.2437 5.99342 19.7539 6.64062 19.7539Z" fill="white"/>
<path d="M10.5469 19.7539C11.1941 19.7539 11.7188 19.2437 11.7188 18.6143C11.7188 17.9848 11.1941 17.4746 10.5469 17.4746C9.89967 17.4746 9.375 17.9848 9.375 18.6143C9.375 19.2437 9.89967 19.7539 10.5469 19.7539Z" fill="white"/>
<path d="M14.4531 19.7539C15.1003 19.7539 15.625 19.2437 15.625 18.6143C15.625 17.9848 15.1003 17.4746 14.4531 17.4746C13.8059 17.4746 13.2812 17.9848 13.2812 18.6143C13.2812 19.2437 13.8059 19.7539 14.4531 19.7539Z" fill="white"/>
<path d="M22.6562 7.59766H2.34375" stroke="white" stroke-width="2" stroke-linejoin="round"/>
</svg>
