<svg width="75" height="65" viewBox="0 0 75 65" fill="none" xmlns="http://www.w3.org/2000/svg">
<path d="M37.9247 6.09375C20.789 5.89316 6.79971 18.0172 7.03115 32.8682C7.25967 47.111 20.641 58.7082 37.0751 58.9062C54.2138 59.1094 68.2001 46.9854 67.9657 32.1344C67.7401 17.889 54.3588 6.2918 37.9247 6.09375ZM56.4433 47.6392C56.3849 47.6938 56.3134 47.7367 56.2338 47.7648C56.1542 47.7929 56.0684 47.8054 55.9826 47.8015C55.8967 47.7976 55.8129 47.7774 55.7371 47.7424C55.6613 47.7073 55.5953 47.6582 55.5438 47.5985C54.2336 46.1129 52.6291 44.8409 50.8051 43.842C47.0756 41.7676 42.35 40.625 37.4999 40.625C32.6498 40.625 27.9242 41.7676 24.1947 43.842C22.3708 44.8404 20.7662 46.112 19.456 47.5973C19.4045 47.6569 19.3385 47.706 19.2627 47.7411C19.1869 47.7762 19.1031 47.7964 19.0172 47.8002C18.9314 47.8041 18.8456 47.7916 18.766 47.7635C18.6864 47.7355 18.6149 47.6926 18.5565 47.6379C14.2582 43.6165 11.8234 38.3618 11.7187 32.8809C11.4799 20.5271 23.1767 10.1867 37.4369 10.1563C51.6972 10.1258 63.2811 20.1614 63.2811 32.5C63.2861 38.1131 60.8437 43.5206 56.4433 47.6392Z" fill="url(#paint0_linear_366_23)"/>
<path d="M37.4998 18.2812C34.6111 18.2812 31.9993 19.2194 30.1434 20.9244C28.2874 22.6294 27.3602 24.9869 27.5696 27.5171C27.9944 32.5 32.449 36.5625 37.4998 36.5625C42.5506 36.5625 46.9964 32.5 47.43 27.5184C47.6468 25.0123 46.7269 22.6764 44.8401 20.9396C42.9769 19.2258 40.3694 18.2812 37.4998 18.2812Z" fill="url(#paint1_linear_366_23)"/>
<defs>
<linearGradient id="paint0_linear_366_23" x1="37.4985" y1="6.0913" x2="37.4985" y2="58.9088" gradientUnits="userSpaceOnUse">
<stop stop-color="#FE3051"/>
<stop offset="1" stop-color="#FF6074"/>
</linearGradient>
<linearGradient id="paint1_linear_366_23" x1="37.5008" y1="18.2812" x2="37.5008" y2="36.5625" gradientUnits="userSpaceOnUse">
<stop stop-color="#FE3051"/>
<stop offset="1" stop-color="#FF6074"/>
</linearGradient>
</defs>
</svg>
